<mxfile host="65bd71144e">
    <diagram id="HV-cMUHriJLewAUNOCiY" name="Page-1">
        <mxGraphModel dx="6063" dy="5800" grid="1" gridSize="10" guides="1" tooltips="1" connect="1" arrows="1" fold="1" page="1" pageScale="1" pageWidth="850" pageHeight="1100" math="0" shadow="0">
            <root>
                <mxCell id="0"/>
                <mxCell id="1" parent="0"/>
                <mxCell id="2" value="" style="rounded=0;whiteSpace=wrap;html=1;strokeColor=#FFFFFF;fillColor=#FFFFFF;gradientColor=default;" vertex="1" parent="1">
                    <mxGeometry x="-850" y="-1500" width="4030" height="3030" as="geometry"/>
                </mxCell>
                <mxCell id="3" value="" style="rounded=0;whiteSpace=wrap;html=1;strokeColor=#000000;fillColor=#FFFFFF;gradientColor=default;strokeWidth=3;movable=0;resizable=0;rotatable=0;deletable=0;editable=0;connectable=0;" vertex="1" parent="1">
                    <mxGeometry x="-730" y="-1320" width="3840" height="2790" as="geometry"/>
                </mxCell>
                <mxCell id="4" value="" style="endArrow=none;html=1;entryX=0.325;entryY=-0.002;entryDx=0;entryDy=0;entryPerimeter=0;exitX=0.326;exitY=1.007;exitDx=0;exitDy=0;exitPerimeter=0;strokeColor=#000000;strokeWidth=3;movable=0;resizable=0;rotatable=0;deletable=0;editable=0;connectable=0;" edge="1" parent="1" source="3" target="3">
                    <mxGeometry width="50" height="50" relative="1" as="geometry">
                        <mxPoint x="1150" y="-130" as="sourcePoint"/>
                        <mxPoint x="1200" y="-180" as="targetPoint"/>
                    </mxGeometry>
                </mxCell>
                <mxCell id="5" value="" style="endArrow=none;html=1;strokeColor=#000000;entryX=0.663;entryY=0;entryDx=0;entryDy=0;entryPerimeter=0;exitX=0.667;exitY=1.005;exitDx=0;exitDy=0;exitPerimeter=0;strokeWidth=3;movable=0;resizable=0;rotatable=0;deletable=0;editable=0;connectable=0;" edge="1" parent="1" source="3" target="3">
                    <mxGeometry width="50" height="50" relative="1" as="geometry">
                        <mxPoint x="1990" y="-150" as="sourcePoint"/>
                        <mxPoint x="2040" y="-200" as="targetPoint"/>
                    </mxGeometry>
                </mxCell>
                <mxCell id="6" value="" style="endArrow=none;html=1;strokeColor=#000000;strokeWidth=3;movable=0;resizable=0;rotatable=0;deletable=0;editable=0;connectable=0;" edge="1" parent="1">
                    <mxGeometry width="50" height="50" relative="1" as="geometry">
                        <mxPoint x="-720" y="-1150" as="sourcePoint"/>
                        <mxPoint x="3120" y="-1150" as="targetPoint"/>
                    </mxGeometry>
                </mxCell>
                <mxCell id="7" value="Text" style="text;strokeColor=none;align=center;fillColor=none;html=1;verticalAlign=middle;whiteSpace=wrap;rounded=0;strokeWidth=3;" vertex="1" parent="1">
                    <mxGeometry x="1630" y="-70" width="60" height="490" as="geometry"/>
                </mxCell>
                <mxCell id="9" value="&lt;b&gt;&lt;font style=&quot;background-color: rgb(255, 255, 255); font-size: 57px;&quot; color=&quot;#030303&quot;&gt;Người dân&lt;/font&gt;&lt;/b&gt;" style="text;strokeColor=none;align=center;fillColor=none;html=1;verticalAlign=middle;whiteSpace=wrap;rounded=0;strokeWidth=3;" vertex="1" parent="1">
                    <mxGeometry x="-620" y="-1300" width="860" height="140" as="geometry"/>
                </mxCell>
                <mxCell id="11" value="&lt;b&gt;&lt;font style=&quot;background-color: rgb(255, 255, 255); font-size: 57px;&quot; color=&quot;#030303&quot;&gt;Cán bộ xử lý&lt;/font&gt;&lt;/b&gt;" style="text;strokeColor=none;align=center;fillColor=none;html=1;verticalAlign=middle;whiteSpace=wrap;rounded=0;strokeWidth=3;" vertex="1" parent="1">
                    <mxGeometry x="735" y="-1300" width="860" height="140" as="geometry"/>
                </mxCell>
                <mxCell id="12" value="&lt;b&gt;&lt;font style=&quot;background-color: rgb(255, 255, 255); font-size: 57px;&quot; color=&quot;#030303&quot;&gt;Cơ quan cấp cao&lt;/font&gt;&lt;/b&gt;" style="text;strokeColor=none;align=center;fillColor=none;html=1;verticalAlign=middle;whiteSpace=wrap;rounded=0;strokeWidth=3;" vertex="1" parent="1">
                    <mxGeometry x="2060" y="-1300" width="860" height="140" as="geometry"/>
                </mxCell>
                <mxCell id="14" value="" style="ellipse;whiteSpace=wrap;html=1;aspect=fixed;labelBackgroundColor=#FFFFFF;strokeColor=#000000;strokeWidth=3;fontSize=57;fontColor=#030303;fillColor=#000000;gradientColor=#000000;" vertex="1" parent="1">
                    <mxGeometry x="-195" y="-1120" width="150" height="150" as="geometry"/>
                </mxCell>
                <mxCell id="15" value="" style="rounded=1;whiteSpace=wrap;html=1;labelBackgroundColor=#FFFFFF;strokeColor=#000000;strokeWidth=3;fontSize=57;fontColor=#030303;fillColor=#FFFFFF;gradientColor=#FFFFFF;" vertex="1" parent="1">
                    <mxGeometry x="-480" y="-705" width="720" height="155" as="geometry"/>
                </mxCell>
                <mxCell id="16" value="&lt;font style=&quot;background-color: rgb(255, 255, 255);&quot; color=&quot;#000000&quot;&gt;UC1: Đăng ký phương tiện&lt;/font&gt;" style="text;strokeColor=none;align=center;fillColor=none;html=1;verticalAlign=middle;whiteSpace=wrap;rounded=0;labelBackgroundColor=#FFFFFF;strokeWidth=3;fontSize=57;fontColor=#030303;" vertex="1" parent="1">
                    <mxGeometry x="800" y="-1450" width="717.5" height="110" as="geometry"/>
                </mxCell>
                <mxCell id="17" value="Nhập thông tin phương tiện" style="text;strokeColor=none;align=center;fillColor=none;html=1;verticalAlign=middle;whiteSpace=wrap;rounded=0;labelBackgroundColor=#FFFFFF;strokeWidth=3;fontSize=57;fontColor=#000000;" vertex="1" parent="1">
                    <mxGeometry x="-360" y="-710" width="480" height="160" as="geometry"/>
                </mxCell>
                <mxCell id="31" style="edgeStyle=none;html=1;exitX=0.5;exitY=1;exitDx=0;exitDy=0;strokeColor=#000000;strokeWidth=3;fontSize=57;fontColor=#000000;entryX=0.5;entryY=0;entryDx=0;entryDy=0;" edge="1" parent="1" source="18" target="19">
                    <mxGeometry relative="1" as="geometry">
                        <mxPoint x="2500" y="-130" as="targetPoint"/>
                    </mxGeometry>
                </mxCell>
                <mxCell id="18" value="Kiểm tra thông tin" style="rounded=1;whiteSpace=wrap;html=1;labelBackgroundColor=#FFFFFF;strokeColor=#000000;strokeWidth=3;fontSize=57;fontColor=#030303;fillColor=#FFFFFF;gradientColor=#FFFFFF;" vertex="1" parent="1">
                    <mxGeometry x="2130" y="-400" width="720" height="155" as="geometry"/>
                </mxCell>
                <mxCell id="42" style="edgeStyle=none;html=1;exitX=0;exitY=0.5;exitDx=0;exitDy=0;entryX=1;entryY=0.5;entryDx=0;entryDy=0;strokeColor=#000000;strokeWidth=3;fontSize=57;fontColor=#000000;" edge="1" parent="1" source="19" target="41">
                    <mxGeometry relative="1" as="geometry"/>
                </mxCell>
                <mxCell id="19" value="" style="rhombus;whiteSpace=wrap;html=1;labelBackgroundColor=#FFFFFF;strokeColor=#000000;strokeWidth=3;fontSize=57;fontColor=#000000;fillColor=#FFFFFF;gradientColor=#FFFFFF;" vertex="1" parent="1">
                    <mxGeometry x="2425" y="-110" width="130" height="220" as="geometry"/>
                </mxCell>
                <mxCell id="35" style="edgeStyle=none;html=1;exitX=0.5;exitY=1;exitDx=0;exitDy=0;strokeColor=#000000;strokeWidth=3;fontSize=57;fontColor=#000000;entryX=0.5;entryY=0;entryDx=0;entryDy=0;" edge="1" parent="1" source="20" target="21">
                    <mxGeometry relative="1" as="geometry">
                        <mxPoint x="2520" y="600" as="targetPoint"/>
                    </mxGeometry>
                </mxCell>
                <mxCell id="20" value="Xác thực với bộ dữ liệu" style="rounded=1;whiteSpace=wrap;html=1;labelBackgroundColor=#FFFFFF;strokeColor=#000000;strokeWidth=3;fontSize=57;fontColor=#030303;fillColor=#FFFFFF;gradientColor=#FFFFFF;" vertex="1" parent="1">
                    <mxGeometry x="2125" y="290" width="720" height="155" as="geometry"/>
                </mxCell>
                <mxCell id="37" style="edgeStyle=none;html=1;exitX=0.5;exitY=1;exitDx=0;exitDy=0;entryX=0.5;entryY=0;entryDx=0;entryDy=0;strokeColor=#000000;strokeWidth=3;fontSize=57;fontColor=#000000;" edge="1" parent="1" source="21" target="22">
                    <mxGeometry relative="1" as="geometry"/>
                </mxCell>
                <mxCell id="21" value="" style="rhombus;whiteSpace=wrap;html=1;labelBackgroundColor=#FFFFFF;strokeColor=#000000;strokeWidth=3;fontSize=57;fontColor=#000000;fillColor=#FFFFFF;gradientColor=#FFFFFF;" vertex="1" parent="1">
                    <mxGeometry x="2415" y="590" width="140" height="220" as="geometry"/>
                </mxCell>
                <mxCell id="39" style="edgeStyle=none;html=1;exitX=0.5;exitY=1;exitDx=0;exitDy=0;entryX=0.5;entryY=0;entryDx=0;entryDy=0;strokeColor=#000000;strokeWidth=3;fontSize=57;fontColor=#000000;" edge="1" parent="1" source="22" target="25">
                    <mxGeometry relative="1" as="geometry"/>
                </mxCell>
                <mxCell id="22" value="Kiểm tra thông tin" style="rounded=1;whiteSpace=wrap;html=1;labelBackgroundColor=#FFFFFF;strokeColor=#000000;strokeWidth=3;fontSize=57;fontColor=#030303;fillColor=#FFFFFF;gradientColor=#FFFFFF;" vertex="1" parent="1">
                    <mxGeometry x="2130" y="960" width="720" height="155" as="geometry"/>
                </mxCell>
                <mxCell id="24" value="" style="ellipse;whiteSpace=wrap;html=1;aspect=fixed;labelBackgroundColor=#FFFFFF;strokeColor=#000000;strokeWidth=3;fontSize=57;fontColor=#000000;fillColor=#FFFFFF;gradientColor=#FFFFFF;movable=0;resizable=0;rotatable=0;deletable=0;editable=0;connectable=0;" vertex="1" parent="1">
                    <mxGeometry x="2415" y="1230" width="190" height="190" as="geometry"/>
                </mxCell>
                <mxCell id="25" value="" style="ellipse;whiteSpace=wrap;html=1;aspect=fixed;labelBackgroundColor=#FFFFFF;strokeColor=#000000;strokeWidth=3;fontSize=57;fontColor=#030303;fillColor=#000000;gradientColor=#000000;movable=0;resizable=0;rotatable=0;deletable=0;editable=0;connectable=0;" vertex="1" parent="1">
                    <mxGeometry x="2435" y="1250" width="150" height="150" as="geometry"/>
                </mxCell>
                <mxCell id="26" value="" style="endArrow=classic;html=1;strokeColor=#000000;strokeWidth=3;fontSize=57;fontColor=#000000;exitX=0.5;exitY=1;exitDx=0;exitDy=0;entryX=0.5;entryY=0;entryDx=0;entryDy=0;" edge="1" parent="1" source="14" target="17">
                    <mxGeometry width="50" height="50" relative="1" as="geometry">
                        <mxPoint x="880" y="-320" as="sourcePoint"/>
                        <mxPoint x="1690" y="-340" as="targetPoint"/>
                    </mxGeometry>
                </mxCell>
                <mxCell id="27" value="" style="endArrow=classic;html=1;strokeColor=#000000;strokeWidth=3;fontSize=57;fontColor=#000000;exitX=0.5;exitY=1;exitDx=0;exitDy=0;entryX=0;entryY=0.5;entryDx=0;entryDy=0;" edge="1" parent="1" source="17" target="18">
                    <mxGeometry relative="1" as="geometry">
                        <mxPoint x="1610" y="-320" as="sourcePoint"/>
                        <mxPoint x="1710" y="-320" as="targetPoint"/>
                        <Array as="points">
                            <mxPoint x="-120" y="-340"/>
                        </Array>
                    </mxGeometry>
                </mxCell>
                <mxCell id="29" value="Gửi thông tin đăng ký" style="text;strokeColor=none;align=center;fillColor=none;html=1;verticalAlign=middle;whiteSpace=wrap;rounded=0;labelBackgroundColor=#FFFFFF;strokeWidth=3;fontSize=57;fontColor=#000000;" vertex="1" parent="1">
                    <mxGeometry x="1060" y="-420" width="380" height="30" as="geometry"/>
                </mxCell>
                <mxCell id="33" value="" style="endArrow=classic;html=1;strokeColor=#000000;strokeWidth=3;fontSize=57;fontColor=#000000;entryX=0.5;entryY=0;entryDx=0;entryDy=0;exitX=0.5;exitY=1;exitDx=0;exitDy=0;" edge="1" parent="1" source="19" target="20">
                    <mxGeometry width="50" height="50" relative="1" as="geometry">
                        <mxPoint x="1640" y="-430" as="sourcePoint"/>
                        <mxPoint x="1690" y="-480" as="targetPoint"/>
                    </mxGeometry>
                </mxCell>
                <mxCell id="49" style="edgeStyle=none;html=1;entryX=0;entryY=0.75;entryDx=0;entryDy=0;strokeColor=#000000;strokeWidth=3;fontSize=57;fontColor=#000000;exitX=0.5;exitY=0;exitDx=0;exitDy=0;" edge="1" parent="1" source="41" target="18">
                    <mxGeometry relative="1" as="geometry">
                        <mxPoint x="-200" y="-280" as="sourcePoint"/>
                        <Array as="points">
                            <mxPoint x="-170" y="-284"/>
                        </Array>
                    </mxGeometry>
                </mxCell>
                <mxCell id="41" value="Nhập lại thông tin" style="rounded=1;whiteSpace=wrap;html=1;labelBackgroundColor=#FFFFFF;strokeColor=#000000;strokeWidth=3;fontSize=57;fontColor=#030303;fillColor=#FFFFFF;gradientColor=#FFFFFF;" vertex="1" parent="1">
                    <mxGeometry x="-530" y="-77.5" width="720" height="155" as="geometry"/>
                </mxCell>
                <mxCell id="43" value="Nếu đúng" style="text;strokeColor=none;align=center;fillColor=none;html=1;verticalAlign=middle;whiteSpace=wrap;rounded=0;labelBackgroundColor=#FFFFFF;strokeWidth=3;fontSize=57;fontColor=#000000;" vertex="1" parent="1">
                    <mxGeometry x="2500" y="130" width="330" height="100" as="geometry"/>
                </mxCell>
                <mxCell id="45" value="Nếu đúng" style="text;strokeColor=none;align=center;fillColor=none;html=1;verticalAlign=middle;whiteSpace=wrap;rounded=0;labelBackgroundColor=#FFFFFF;strokeWidth=3;fontSize=57;fontColor=#000000;" vertex="1" parent="1">
                    <mxGeometry x="2480" y="830" width="330" height="100" as="geometry"/>
                </mxCell>
                <mxCell id="46" style="edgeStyle=none;html=1;exitX=0;exitY=0.5;exitDx=0;exitDy=0;entryX=0.5;entryY=1;entryDx=0;entryDy=0;strokeColor=#000000;strokeWidth=3;fontSize=57;fontColor=#000000;" edge="1" parent="1" target="41">
                    <mxGeometry relative="1" as="geometry">
                        <mxPoint x="2405" y="696.67" as="sourcePoint"/>
                        <mxPoint x="170" y="696.67" as="targetPoint"/>
                        <Array as="points">
                            <mxPoint x="-170" y="697"/>
                        </Array>
                    </mxGeometry>
                </mxCell>
                <mxCell id="47" value="Nếu sai" style="text;strokeColor=none;align=center;fillColor=none;html=1;verticalAlign=middle;whiteSpace=wrap;rounded=0;labelBackgroundColor=#FFFFFF;strokeWidth=3;fontSize=57;fontColor=#000000;" vertex="1" parent="1">
                    <mxGeometry x="2130" y="-70" width="260" height="30" as="geometry"/>
                </mxCell>
                <mxCell id="48" value="Nếu sai" style="text;strokeColor=none;align=center;fillColor=none;html=1;verticalAlign=middle;whiteSpace=wrap;rounded=0;labelBackgroundColor=#FFFFFF;strokeWidth=3;fontSize=57;fontColor=#000000;" vertex="1" parent="1">
                    <mxGeometry x="2155" y="570" width="260" height="110" as="geometry"/>
                </mxCell>
                <mxCell id="51" value="Gửi lại thông tin đăng ký" style="text;strokeColor=none;align=center;fillColor=none;html=1;verticalAlign=middle;whiteSpace=wrap;rounded=0;labelBackgroundColor=#FFFFFF;strokeWidth=3;fontSize=57;fontColor=#000000;" vertex="1" parent="1">
                    <mxGeometry x="1010" y="-190" width="380" height="30" as="geometry"/>
                </mxCell>
            </root>
        </mxGraphModel>
    </diagram>
</mxfile>